<svg width="13" height="13" viewBox="0 0 13 13" fill="none" xmlns="http://www.w3.org/2000/svg">
<path fill-rule="evenodd" clip-rule="evenodd" d="M13 3.848L13 9.1585C13 11.453 11.5239 13 9.321 13L3.6855 13C1.482 13 1.35243e-07 11.453 3.35834e-07 9.1585L8.00093e-07 3.848C1.00125e-06 1.547 1.482 -1.00694e-06 3.6855 -8.143e-07L9.321 -3.21628e-07C11.5239 -1.29049e-07 13 1.547 13 3.848ZM6.01249 5.0245L6.01249 9.152C6.01249 9.425 6.23349 9.6395 6.49999 9.6395C6.77299 9.6395 6.98749 9.425 6.98749 9.152L6.98749 5.0245L8.59301 6.6365C8.68401 6.7275 8.814 6.7795 8.9375 6.7795C9.06035 6.7795 9.1845 6.7275 9.282 6.6365C9.4705 6.448 9.4705 6.136 9.282 5.9475L6.84449 3.497C6.66249 3.315 6.33749 3.315 6.1555 3.497L3.718 5.9475C3.5295 6.136 3.5295 6.448 3.718 6.6365C3.913 6.825 4.2185 6.825 4.4135 6.6365L6.01249 5.0245Z" fill="white"/>
</svg>
