<svg width="50" height="50" viewBox="0 0 50 50" fill="none" xmlns="http://www.w3.org/2000/svg">
<path d="M34.084 17.5979V27.7638C34.084 28.9153 34.311 29.5605 34.6491 29.9035C34.8692 30.1156 35.1603 30.2384 35.4658 30.2481V17.5979H34.084ZM41.6137 23.1219C41.7174 22.9768 41.8333 22.8407 41.9599 22.7152C42.2596 22.4137 42.6159 22.1745 43.0083 22.0113C43.4007 21.848 43.8216 21.764 44.2466 21.764C44.6716 21.764 45.0925 21.848 45.4849 22.0113C45.8773 22.1745 46.2336 22.4137 46.5333 22.7152C46.579 22.7609 46.6247 22.8115 46.6688 22.8622C46.1372 17.3502 43.5715 12.2338 39.4722 8.51091C35.3729 4.78797 30.0339 2.72538 24.4963 2.72538C18.9588 2.72538 13.6197 4.78797 9.52043 8.51091C5.42112 12.2338 2.85548 17.3502 2.32382 22.8622C2.36792 22.8115 2.41366 22.7609 2.45939 22.7152C2.79114 22.3863 3.19017 22.1331 3.62906 21.9731C4.06795 21.813 4.53629 21.75 5.00188 21.7881C5.46747 21.8263 5.91928 21.9649 6.32623 22.1942C6.73319 22.4236 7.08565 22.7384 7.35939 23.117C7.82259 18.8973 9.82687 14.9971 12.988 12.164C16.1492 9.33084 20.2448 7.7641 24.4898 7.7641C28.7348 7.7641 32.8304 9.33084 35.9915 12.164C39.1527 14.9971 41.157 18.8973 41.6202 23.117L41.6137 23.1219ZM47.4643 25.0018C47.4643 31.0968 45.0431 36.9421 40.7333 41.2519C36.4235 45.5616 30.5782 47.9828 24.4833 47.9828C18.3883 47.9828 12.543 45.5616 8.23324 41.2519C3.92346 36.9421 1.50226 31.0968 1.50226 25.0018V24.9561C1.50226 18.8612 3.92346 13.0159 8.23324 8.70608C12.543 4.3963 18.3883 1.9751 24.4833 1.9751C30.5782 1.9751 36.4235 4.3963 40.7333 8.70608C45.0431 13.0159 47.4643 18.8612 47.4643 24.9561V25.0018ZM28.284 39.1939C31.4093 38.3574 34.1713 36.5132 36.1419 33.9473C38.1124 31.3814 39.1815 28.2371 39.1833 25.0018H39.8889C39.8874 28.3916 38.7683 31.6863 36.7049 34.3757C34.6415 37.0651 31.7489 38.9991 28.4751 39.8782L28.284 39.1939ZM20.4963 39.8782C17.2209 39.0021 14.3264 37.0688 12.2625 34.3788C10.1986 31.6887 9.08074 28.3924 9.08256 25.0018H9.78326C9.78437 28.2356 10.8518 31.3788 12.8201 33.9445C14.7885 36.5102 17.5479 38.3552 20.6711 39.1939L20.4963 39.8782ZM12.5044 15.3211C13.9479 13.5342 15.7728 12.0929 17.8455 11.1027C19.9182 10.1126 22.1862 9.59867 24.4833 9.59867C26.7803 9.59867 29.0483 10.1126 31.121 11.1027C33.1937 12.0929 35.0187 13.5342 36.4621 15.3211L35.9166 15.7621C34.5386 14.0569 32.7967 12.6816 30.8184 11.7368C28.8401 10.792 26.6756 10.3016 24.4833 10.3016C22.2909 10.3016 20.1264 10.792 18.1481 11.7368C16.1698 12.6816 14.4279 14.0569 13.0499 15.7621L12.5044 15.3211ZM36.1681 13.317C33.4648 10.6144 29.908 8.93283 26.1038 8.55867C22.2996 8.18452 18.4834 9.14095 15.3053 11.265C12.1272 13.3891 9.78395 16.5494 8.6747 20.2074C7.56545 23.8655 7.75886 27.795 9.22199 31.3264C10.6851 34.8579 13.3274 37.7728 16.6987 39.5745C20.07 41.3762 23.9618 41.9532 27.7108 41.2073C31.4599 40.4613 34.8343 38.4386 37.2592 35.4836C39.6841 32.5287 41.0094 28.8244 41.0093 25.0018C41.0126 22.8312 40.5865 20.6813 39.7557 18.6759C38.9248 16.6705 37.7056 14.8493 36.1681 13.317ZM27.8773 19.197H25.9794C25.9126 19.4748 25.7702 19.7286 25.5678 19.9303C25.2795 20.2168 24.8896 20.3776 24.4833 20.3776C24.0769 20.3776 23.687 20.2168 23.3987 19.9303C23.1964 19.7286 23.0539 19.4748 22.9871 19.197H17.5971V19.9385H18.6931V20.6441H16.8964V18.4963H17.4322C17.2187 18.2372 17.0748 17.928 17.014 17.5979H15.5881V33.4788C15.8978 33.466 16.1924 33.3419 16.4179 33.1293C16.7445 32.7896 16.9781 32.1493 16.9781 30.988H17.6837C17.6837 32.3551 17.3734 33.1571 16.916 33.6258C16.426 34.1158 15.8135 34.2138 15.2157 34.1795L14.8891 34.1632V30.333C14.87 30.3553 14.8493 30.3761 14.827 30.3951C14.337 30.8851 13.7196 30.988 13.1267 30.9553L12.8 30.9374V26.8099C12.7773 26.8285 12.7566 26.8493 12.738 26.872C12.248 27.362 11.6306 27.4649 11.0328 27.4306L10.7061 27.4077V16.8923H17.7033V17.2419C17.7033 17.5743 17.8352 17.8931 18.0701 18.1283C18.305 18.3635 18.6237 18.4958 18.9561 18.4963H23.0067C23.0734 18.218 23.2159 17.9636 23.4183 17.7613C23.707 17.4756 24.0967 17.3154 24.5029 17.3154C24.909 17.3154 25.2987 17.4756 25.5874 17.7613C25.7898 17.9636 25.9323 18.218 25.999 18.4963H26.6523C26.512 18.2665 26.4374 18.0027 26.4367 17.7335H27.1423C27.1428 17.9357 27.2233 18.1294 27.3662 18.2724C27.5092 18.4153 27.7029 18.4958 27.9051 18.4963H30.0366C30.369 18.4958 30.6876 18.3635 30.9225 18.1283C31.1574 17.8931 31.2894 17.5743 31.2894 17.2419V16.8923H38.2866V27.4077L37.9599 27.4306C37.3621 27.4649 36.7414 27.362 36.2547 26.872C36.2361 26.8493 36.2153 26.8285 36.1926 26.8099V30.9374L35.866 30.9553C35.2682 30.988 34.6524 30.8933 34.1657 30.3951C34.1434 30.3761 34.1226 30.3553 34.1036 30.333V34.1632L33.7769 34.1795C33.1791 34.2138 32.5634 34.1175 32.0766 33.6258C31.6193 33.1571 31.309 32.3551 31.309 30.988H31.9966C31.9966 32.146 32.2236 32.7847 32.5568 33.1293C32.7811 33.3437 33.0765 33.4681 33.3866 33.4788V17.5979H31.9639C31.9037 17.9295 31.7572 18.2393 31.5393 18.4963H32.0815V20.6474H30.2849V19.9385H31.3808V19.1986H27.8773V19.197ZM26.8157 14.5763C27.2938 14.6551 27.7281 14.9018 28.0407 15.2721C28.363 15.6316 28.5441 16.0959 28.5503 16.5787H27.843C27.8315 16.264 27.7126 15.9628 27.5061 15.725C27.2996 15.4873 27.0179 15.3274 26.7079 15.2721L23.5915 14.7984C23.2068 14.7383 22.8477 14.5681 22.5576 14.3084V17.0851C22.5583 17.2141 22.5332 17.342 22.4839 17.4612C22.4345 17.5804 22.3618 17.6885 22.2701 17.7792C22.1785 17.8721 22.0694 17.9458 21.9491 17.9963C21.8289 18.0467 21.6998 18.0729 21.5694 18.0732C21.3098 18.0677 21.0625 17.9616 20.8796 17.7773C20.6968 17.5929 20.5927 17.3447 20.5894 17.0851H21.295C21.2961 17.1596 21.3267 17.2306 21.3799 17.2827C21.4056 17.3091 21.4363 17.3301 21.4703 17.3445C21.5042 17.3588 21.5407 17.3661 21.5776 17.366C21.6532 17.3649 21.7255 17.3351 21.7801 17.2827C21.8058 17.2567 21.8261 17.2258 21.8398 17.1919C21.8536 17.158 21.8605 17.1217 21.8601 17.0851V12.8025H22.5657C22.5704 13.1163 22.6861 13.4184 22.8924 13.6551C23.0993 13.895 23.3825 14.0565 23.6944 14.1124L26.8157 14.5763ZM26.409 17.7286V16.5477H27.1146V17.7335L26.409 17.7286ZM23.224 24.1999H24.1272V23.6527H23.224V22.9471H24.1272V22.2252C23.8005 21.7352 23.3759 21.2141 22.8908 20.9103C22.6646 20.7519 22.397 20.6632 22.121 20.6551C21.8449 20.6469 21.5726 20.7198 21.3375 20.8646C21.1987 20.9438 21.0784 21.0519 20.9849 21.1815C20.8914 21.3111 20.8267 21.4592 20.7952 21.6159C20.7408 21.9817 20.8209 22.3549 21.0206 22.6662C21.2011 22.9461 21.4114 23.2057 21.6478 23.4404C22.1852 24.0153 22.7389 24.6082 22.7389 25.5016V25.8512H20.1631V25.5016C20.1631 25.157 19.7613 24.7846 19.3464 24.3942C18.5673 23.6592 17.749 22.8981 18.4938 21.7123C18.7157 21.3706 19.0432 21.1108 19.4265 20.9724C19.7206 20.8662 20.0357 20.831 20.346 20.8695C20.5078 20.6189 20.7281 20.4115 20.9879 20.2652C21.834 19.7752 22.6033 19.9107 23.2746 20.3272C23.7486 20.6471 24.16 21.0512 24.4882 21.5196C24.8163 21.0512 25.2277 20.6471 25.7017 20.3272C26.3681 19.9107 27.1374 19.7752 27.9884 20.2652C28.2494 20.4162 28.4706 20.6273 28.6336 20.8809C28.9423 20.8421 29.2558 20.8774 29.5482 20.9838C29.9336 21.1207 30.2631 21.3808 30.4858 21.7237C31.2306 22.9095 30.4123 23.6707 29.6266 24.4057C29.215 24.796 28.81 25.1684 28.81 25.5131V25.8626H26.2277V25.5131C26.2277 24.6196 26.7814 24.0267 27.3122 23.4518C27.5524 23.2189 27.7651 22.9591 27.9459 22.6776C28.1471 22.367 28.2251 21.9925 28.1648 21.6274C28.1358 21.4706 28.0728 21.3221 27.9803 21.1923C27.8877 21.0625 27.7678 20.9545 27.6291 20.876C27.394 20.731 27.1216 20.658 26.8456 20.6662C26.5695 20.6743 26.3019 20.7632 26.0758 20.9218C25.5858 21.2256 25.1725 21.7384 24.8328 22.2366V22.9602H25.7426V23.6658H24.8328V24.2129H25.7426V24.9202H24.8328V26.5682H28.6793C28.7369 26.4024 28.8319 26.252 28.957 26.1288C29.1143 25.9721 29.3145 25.8656 29.5324 25.8226C29.7502 25.7796 29.976 25.8021 30.181 25.8873C30.3861 25.9725 30.5613 26.1166 30.6846 26.3013C30.8079 26.486 30.8736 26.703 30.8736 26.9251C30.8736 27.1471 30.8079 27.3642 30.6846 27.5489C30.5613 27.7336 30.3861 27.8776 30.181 27.9628C29.976 28.048 29.7502 28.0705 29.5324 28.0276C29.3145 27.9846 29.1143 27.878 28.957 27.7213C28.8316 27.5958 28.7366 27.4433 28.6793 27.2754H20.2872C20.2299 27.4433 20.1349 27.5958 20.0096 27.7213C19.8518 27.8802 19.6504 27.9887 19.431 28.033C19.2115 28.0773 18.9838 28.0554 18.7768 27.9701C18.5698 27.8848 18.3927 27.7399 18.2682 27.5539C18.1436 27.3678 18.0771 27.149 18.0771 26.9251C18.0771 26.7012 18.1436 26.4823 18.2682 26.2963C18.3927 26.1102 18.5698 25.9654 18.7768 25.8801C18.9838 25.7948 19.2115 25.7729 19.431 25.8172C19.6504 25.8614 19.8518 25.9699 20.0096 26.1288C20.1346 26.252 20.2296 26.4024 20.2872 26.5682H24.1272V24.912H23.224V24.1999ZM28.124 33.1064V37.8905L29.0615 37.2698V32.5985C28.7626 32.7618 28.4457 32.9382 28.124 33.1064ZM29.7671 32.1526V37.6487L28.124 38.7316L27.4233 39.2004L25.7785 40.2849L24.4833 41.1326L23.1962 40.2849L21.5514 39.2004L20.8458 38.7365L19.2027 37.6536V32.1575C17.8356 31.1971 16.8932 29.8479 16.8932 26.7805V21.1668H17.5988V26.7805C17.5988 29.1587 18.2374 30.3951 19.2027 31.2428V29.402H19.9099V31.7736C20.3281 32.0448 20.7919 32.2881 21.2721 32.5413C21.6674 32.7504 22.0741 32.966 22.4906 33.2077V28.6442H20.8017V27.9418H23.1962V33.6585C23.5065 33.8725 23.8169 34.1044 24.1272 34.3641V27.9271H24.8328V34.3543C25.1448 34.0946 25.46 33.8643 25.7703 33.6487V27.9418H28.1648V28.6474H26.4776V33.211C26.8941 32.9692 27.2942 32.7536 27.696 32.5446C28.1762 32.2914 28.6352 32.0546 29.0582 31.7769V29.402H29.7638V31.2428C30.7291 30.3951 31.3678 29.1587 31.3678 26.7805V21.1668H32.0734V26.7805C32.0734 29.8479 31.1244 31.1905 29.7638 32.1575L29.7671 32.1526ZM26.4808 34.0276V38.9701L27.4184 38.3543V33.4952C27.1064 33.6585 26.7961 33.8398 26.4808 34.0374V34.0276ZM19.9099 32.6034V37.2747L20.8475 37.8954V33.1113C20.5208 32.948 20.2088 32.7732 19.9099 32.6034ZM21.5514 33.4952V38.3641L22.489 38.9799V34.0325C22.1737 33.8349 21.8569 33.6536 21.5514 33.4903V33.4952ZM23.1962 34.5176V39.4487L24.4833 40.2898L25.7703 39.4438V34.5127C25.4417 34.7589 25.1286 35.025 24.8328 35.3098V38.2122H24.1272V35.3098C23.834 35.0248 23.523 34.7586 23.1962 34.5127V34.5176ZM21.5514 29.4069V31.6479H20.8458V29.402L21.5514 29.4069ZM28.1207 29.4069V31.6479H27.4233V29.402L28.1207 29.4069ZM25.0713 18.2643C24.9553 18.1479 24.8074 18.0685 24.6462 18.0362C24.4851 18.0039 24.318 18.0202 24.1661 18.083C24.0143 18.1458 23.8845 18.2523 23.7932 18.389C23.702 18.5257 23.6533 18.6864 23.6535 18.8507C23.6531 18.9591 23.6743 19.0664 23.7158 19.1665C23.7573 19.2667 23.8183 19.3575 23.8953 19.4338C23.971 19.5154 24.0625 19.5809 24.1641 19.6264C24.2657 19.6719 24.3754 19.6965 24.4867 19.6987C24.5981 19.7009 24.7087 19.6807 24.812 19.6392C24.9154 19.5978 25.0093 19.536 25.0883 19.4575C25.1672 19.379 25.2296 19.2854 25.2716 19.1822C25.3136 19.0791 25.3344 18.9686 25.3329 18.8573C25.3313 18.746 25.3073 18.6361 25.2623 18.5342C25.2174 18.4323 25.1524 18.3406 25.0713 18.2643ZM20.0896 21.562C19.9449 21.5629 19.8014 21.5877 19.6649 21.6355C19.4282 21.7206 19.2261 21.8813 19.09 22.0929C18.6555 22.7821 19.2533 23.3473 19.8299 23.8895C20.2529 24.2913 20.6711 24.6801 20.8099 25.1554H21.9794C21.8503 24.7029 21.4894 24.3077 21.1333 23.9304C20.8575 23.6582 20.6146 23.3544 20.4097 23.0255C20.1385 22.5911 20.0233 22.0772 20.0831 21.5686L20.0896 21.562ZM28.872 21.562C28.9377 22.0697 28.8257 22.5844 28.5552 23.019C28.3503 23.3479 28.1074 23.6516 27.8316 23.9238C27.4772 24.3011 27.1146 24.6964 26.9855 25.1488H28.155C28.2955 24.6735 28.7136 24.2848 29.135 23.883C29.7116 23.3473 30.3094 22.7821 29.8749 22.0863C29.7376 21.8758 29.5359 21.7154 29.3 21.629C29.1619 21.5806 29.0167 21.5558 28.8704 21.5555L28.872 21.562ZM19.513 26.6172C19.4743 26.5779 19.4281 26.5468 19.3772 26.5255C19.3263 26.5042 19.2717 26.4933 19.2166 26.4933C19.1614 26.4933 19.1068 26.5042 19.0559 26.5255C19.005 26.5468 18.9589 26.5779 18.9201 26.6172C18.8805 26.6562 18.849 26.7027 18.8277 26.754C18.8064 26.8054 18.7956 26.8605 18.796 26.9161C18.7965 26.999 18.8214 27.0799 18.8678 27.1485C18.9142 27.2172 18.9798 27.2707 19.0565 27.3021C19.1332 27.3336 19.2175 27.3416 19.2987 27.3252C19.3799 27.3088 19.4545 27.2688 19.513 27.2101C19.5911 27.132 19.6356 27.0265 19.6372 26.9161C19.6357 26.8042 19.5912 26.6972 19.513 26.6172ZM30.0464 26.6172C30.0076 26.5779 29.9615 26.5468 29.9106 26.5255C29.8597 26.5042 29.8051 26.4933 29.7499 26.4933C29.6948 26.4933 29.6402 26.5042 29.5893 26.5255C29.5384 26.5468 29.4922 26.5779 29.4535 26.6172C29.4136 26.656 29.382 26.7025 29.3607 26.7539C29.3393 26.8053 29.3287 26.8605 29.3294 26.9161C29.3287 26.971 29.3394 27.0255 29.3607 27.0761C29.3821 27.1267 29.4137 27.1723 29.4535 27.2101C29.5123 27.268 29.5868 27.3074 29.6678 27.3233C29.7488 27.3393 29.8327 27.3311 29.909 27.2997C29.9854 27.2684 30.0509 27.2154 30.0974 27.1472C30.1439 27.079 30.1693 26.9986 30.1705 26.9161C30.1709 26.8605 30.1601 26.8054 30.1388 26.754C30.1175 26.7027 30.0861 26.6562 30.0464 26.6172ZM14.8825 17.5979H13.4926V30.2481C13.8012 30.24 14.0955 30.1164 14.3174 29.9018C14.6555 29.5637 14.8825 28.9218 14.8825 27.7622V17.5979ZM12.787 17.5979H11.3921V26.725C11.702 26.7176 11.9979 26.5947 12.2218 26.3804C12.5485 26.0406 12.787 25.3922 12.787 24.2391V17.5979ZM36.1796 17.5979V24.2391C36.1796 25.3922 36.4115 26.0357 36.7447 26.3804C36.9686 26.5947 37.2645 26.7176 37.5744 26.725V17.5979H36.1796Z" fill="white"/>
<path d="M24.4832 0.501844C30.1539 0.496069 35.6511 2.45689 40.038 6.05014C44.4249 9.64339 47.43 14.6467 48.5412 20.2074C49.6524 25.7681 48.8009 31.5421 46.1319 36.5454C43.4629 41.5486 39.1414 45.4715 33.9041 47.6455C28.6667 49.8195 22.8375 50.1101 17.4099 48.4677C11.9823 46.8253 7.29219 43.3516 4.13883 38.6386C0.985468 33.9256 -0.435978 28.2649 0.116731 22.6212C0.66944 16.9776 3.1621 11.7002 7.16991 7.68851C9.43999 5.40905 12.1382 3.60069 15.1094 2.36735C18.0806 1.13402 21.2662 0.500041 24.4832 0.501844ZM41.3817 8.10338C37.472 4.19176 32.3269 1.75688 26.8231 1.21363C21.3193 0.670387 15.7974 2.0524 11.1984 5.12416C6.59939 8.19593 3.2078 12.7674 1.60158 18.0595C-0.0046406 23.3517 0.273894 29.037 2.38972 34.1468C4.50555 39.2566 8.32774 43.4746 13.205 46.0822C18.0823 48.6897 23.7128 49.5253 29.1371 48.4467C34.5614 47.368 39.4439 44.4419 42.9525 40.1668C46.4612 35.8918 48.3789 30.5324 48.3789 25.0018C48.3828 21.8631 47.7667 18.7546 46.5659 15.8546C45.3651 12.9547 43.6033 10.3205 41.3817 8.10338Z" fill="white"/>
<path d="M8.98785 16.1165L7.28265 15.2884L8.26265 16.7944L8.06338 17.1978L6.32225 17.3611L7.97681 18.1778L7.56358 19.0173L4.35571 17.4379L4.71995 16.6882L7.12585 16.471L5.81918 14.4603L6.18995 13.7123L9.40435 15.2819L8.98785 16.1165Z" fill="white"/>
<path d="M10.7959 12.5085L9.81591 13.6649L10.1671 14.328L9.50231 15.1169L7.78894 11.6085L8.43084 10.8474L12.1875 11.9401L11.5097 12.7437L10.7959 12.5085ZM10.0331 12.2619L8.86204 11.8764L9.44187 12.9658L10.0331 12.2619Z" fill="white"/>
<path d="M12.9225 9.78248L13.7261 10.7821L12.9372 11.4158L12.1206 10.4031L9.63464 9.48521L10.466 8.81718L12.0177 9.39374L11.789 7.76041L12.5599 7.13647L12.9225 9.78248Z" fill="white"/>
<path d="M15.4509 9.40517C15.1169 9.40173 14.7903 9.30684 14.5065 9.13082C14.2226 8.95479 13.9924 8.70435 13.8409 8.40671C13.6894 8.10907 13.6223 7.7756 13.647 7.44252C13.6717 7.10945 13.7872 6.7895 13.9809 6.51744C14.1919 6.23348 14.4659 6.00234 14.7813 5.84221C15.0968 5.68208 15.4451 5.59732 15.7988 5.5946C16.1328 5.59841 16.4594 5.69358 16.7431 5.86981C17.0269 6.04604 17.257 6.2966 17.4084 6.59431C17.5599 6.89202 17.627 7.22551 17.6023 7.55863C17.5777 7.89174 17.4624 8.21176 17.2688 8.48397C17.0576 8.76763 16.7836 8.99845 16.4681 9.15829C16.1527 9.31813 15.8045 9.40264 15.4509 9.40517ZM16.4685 8.07564C16.5616 7.93377 16.6126 7.76839 16.6155 7.5987C16.6201 7.41263 16.5762 7.22855 16.4881 7.0646C16.4069 6.89725 16.285 6.75292 16.1336 6.64484C15.9938 6.54775 15.8299 6.49123 15.66 6.4815C15.49 6.47331 15.3208 6.51051 15.17 6.5893C15.0166 6.6622 14.8857 6.77504 14.791 6.91597C14.6981 7.05853 14.6471 7.22438 14.644 7.39454C14.6449 7.58064 14.6897 7.76391 14.7749 7.92939C14.86 8.09487 14.9831 8.23789 15.134 8.34677C15.2733 8.44372 15.4367 8.50025 15.6061 8.5101C15.7779 8.51746 15.9487 8.48045 16.102 8.40264C16.2553 8.32482 16.386 8.20883 16.4815 8.06584L16.4685 8.07564Z" fill="white"/>
<path d="M19.9311 6.78523L19.3954 6.91916L19.6273 7.84036L18.6473 8.08699L17.7751 4.61779L19.3611 4.22089C19.6403 4.14428 19.9325 4.12759 20.2186 4.17189C20.3961 4.20744 20.5643 4.27948 20.7124 4.38343C20.8606 4.48739 20.9856 4.621 21.0794 4.77579C21.1732 4.93058 21.2339 5.10317 21.2575 5.28263C21.2811 5.46209 21.2672 5.6445 21.2166 5.81829C21.1408 6.04016 21.0031 6.23569 20.8197 6.38179L21.8422 7.28339L20.7919 7.54636L19.9311 6.78523ZM19.9851 5.02776C19.8296 4.96168 19.6553 4.95471 19.495 5.00816L18.9495 5.14536L19.2043 6.16129L19.7498 6.02409C19.9153 5.99463 20.065 5.9079 20.1729 5.77909C20.2125 5.71879 20.2383 5.65048 20.2485 5.57905C20.2586 5.50762 20.2529 5.43482 20.2317 5.36586C20.2181 5.29479 20.1889 5.22761 20.1463 5.16915C20.1036 5.1107 20.0486 5.06241 19.9851 5.02776Z" fill="white"/>
<path d="M24.5518 6.99762C24.2681 6.83362 24.0356 6.59381 23.8805 6.30508C23.7206 6.00784 23.647 5.67176 23.6682 5.33488C23.6778 4.99719 23.7807 4.66876 23.9654 4.38592C24.1475 4.11351 24.4005 3.89606 24.6972 3.75708C25.0157 3.60957 25.3659 3.54335 25.7164 3.56435C26.0194 3.57353 26.3172 3.64643 26.5902 3.77832C26.8413 3.89991 27.0585 4.0817 27.2223 4.30752L26.5526 4.86122C26.4606 4.72756 26.3391 4.61682 26.1975 4.53753C26.0559 4.45824 25.898 4.41252 25.736 4.40388C25.5551 4.39269 25.3744 4.42871 25.2117 4.50842C25.0582 4.58496 24.9304 4.70476 24.8442 4.85305C24.7502 5.01325 24.699 5.19492 24.6955 5.38062C24.6833 5.56578 24.7176 5.75105 24.7952 5.91962C24.8688 6.0746 24.9857 6.20504 25.1316 6.29528C25.2865 6.38931 25.4634 6.44112 25.6445 6.44555C25.8076 6.45306 25.9703 6.42259 26.1197 6.35655C26.269 6.29051 26.401 6.19071 26.5053 6.06498L27.1227 6.67585C26.9384 6.88619 26.705 7.04777 26.4432 7.14625C26.1592 7.25308 25.8559 7.29872 25.553 7.28018C25.2009 7.27102 24.8567 7.17388 24.5518 6.99762Z" fill="white"/>
<path d="M29.8945 7.27203L28.4245 6.88983L27.977 7.4909L26.979 7.2312L29.4159 4.1687L30.3796 4.42187L31.0166 8.28144L29.9909 8.0152L29.8945 7.27203ZM29.7965 6.47497L29.6332 5.2516L28.8998 6.24303L29.7965 6.47497Z" fill="white"/>
<path d="M34.9366 6.48965C35.0965 6.67744 35.1954 6.90957 35.2199 7.15502C35.2444 7.40048 35.1934 7.64757 35.0738 7.86328C34.9707 8.08699 34.8014 8.2736 34.5887 8.39777C34.376 8.52195 34.1302 8.5777 33.8847 8.55745C33.5986 8.53717 33.3201 8.45586 33.0681 8.31898L32.5111 8.03642L32.0881 8.87105L31.1799 8.41208L32.8133 5.22382L34.2702 5.96535C34.5269 6.0911 34.754 6.26978 34.9366 6.48965ZM33.8472 7.67382C33.9168 7.65454 33.9814 7.62008 34.0361 7.57293C34.0909 7.52577 34.1346 7.46707 34.164 7.40105C34.2003 7.33824 34.2223 7.26815 34.2282 7.19584C34.2341 7.12353 34.2239 7.0508 34.1983 6.98292C34.1225 6.83499 33.9962 6.71911 33.8423 6.65625L33.3408 6.40145L32.8655 7.33408L33.367 7.58888C33.5137 7.67493 33.6865 7.70509 33.8537 7.67382H33.8472Z" fill="white"/>
<path d="M36.4882 7.27856L37.3049 7.86656L35.2338 10.7772L34.4172 10.1892L36.4882 7.27856Z" fill="white"/>
<path d="M38.2686 9.69097L37.4715 8.93637L38.022 8.35327L40.3494 10.555L39.799 11.1381L39.0036 10.3868L37.0975 12.4023L36.3625 11.7065L38.2686 9.69097Z" fill="white"/>
<path d="M39.9542 14.7968L39.0705 13.5685L38.3437 13.7465L37.7394 12.9152L41.5646 12.0985L42.1461 12.9152L40.1632 16.2847L39.5491 15.4305L39.9542 14.7968ZM40.387 14.1206L41.0403 13.0785L39.8431 13.3741L40.387 14.1206Z" fill="white"/>
<path d="M43.4626 15.0385L43.8823 15.9597L41.3589 17.103L42.0661 18.6563L41.3376 18.983L40.209 16.5101L43.4626 15.0385Z" fill="white"/>
<path d="M6.15236 24.5478V25.0018L2.97552 24.9512V24.4971L6.15236 24.5478Z" fill="#282842"/>
<path d="M6.47902 28.7487L3.32832 29.1587L3.28096 28.7895L5.38306 26.5943L3.03432 26.8998L2.97552 26.4506L6.12622 26.0406L6.17359 26.4098L4.06659 28.605L6.41532 28.2995L6.47902 28.7487Z" fill="#282842"/>
<path d="M7.58313 32.311L4.13026 31.9844L3.98816 31.558L6.56393 29.2322L6.72726 29.6977L4.60393 31.6038L7.44429 31.8765L7.58313 32.311Z" fill="#282842"/>
<path d="M6.45619 36.0775L6.10829 36.2719L5.01886 34.24L7.82329 32.7308L8.88169 34.7072L8.53379 34.8934L7.68936 33.3172L6.83023 33.7794L7.58156 35.1825L7.24183 35.3654L6.49049 33.9607L5.58563 34.4507L6.45619 36.0775Z" fill="#282842"/>
<path d="M7.05887 37.5116C6.98662 37.3232 6.95543 37.1216 6.9674 36.9203L7.3496 36.8386C7.34054 37.0181 7.36548 37.1976 7.4231 37.3678C7.4833 37.5576 7.57677 37.7351 7.69913 37.8921C7.81287 38.0641 7.97478 38.1988 8.16463 38.2792C8.23114 38.3042 8.30299 38.3114 8.37314 38.3003C8.44329 38.2891 8.50933 38.2599 8.5648 38.2155C8.60522 38.1872 8.63909 38.1505 8.66417 38.1079C8.68924 38.0654 8.70492 38.018 8.71017 37.9689C8.7205 37.8662 8.70823 37.7625 8.67423 37.6651C8.62418 37.5205 8.56638 37.3788 8.5011 37.2404C8.41747 37.0573 8.34546 36.8691 8.2855 36.6769C8.24147 36.5273 8.23474 36.3692 8.2659 36.2163C8.30705 36.0459 8.40935 35.8965 8.55337 35.7966C8.68111 35.6944 8.83629 35.6324 8.99927 35.6185C9.17623 35.6107 9.35178 35.6532 9.5056 35.741C9.70531 35.8579 9.87879 36.0147 10.0152 36.2016C10.1297 36.3518 10.2236 36.5166 10.2945 36.6916C10.3631 36.8494 10.4035 37.018 10.4137 37.1898L10.0348 37.2927C10.0216 37.1365 9.98584 36.983 9.92863 36.837C9.87429 36.6964 9.80003 36.5644 9.70814 36.445C9.59608 36.2752 9.43397 36.1445 9.24427 36.071C9.17633 36.0481 9.10379 36.0424 9.03311 36.0544C8.96244 36.0663 8.89582 36.0956 8.8392 36.1396C8.79904 36.1684 8.76547 36.2055 8.74069 36.2483C8.71591 36.2911 8.7005 36.3386 8.69547 36.3878C8.68644 36.4934 8.69979 36.5997 8.73467 36.6998C8.7832 36.8431 8.84048 36.9833 8.90617 37.1196C8.99031 37.3017 9.0618 37.4894 9.12013 37.6814C9.16391 37.8299 9.1712 37.9868 9.14137 38.1388C9.1029 38.3091 9.0021 38.4588 8.8588 38.5585C8.73008 38.6556 8.5755 38.7125 8.41453 38.7219C8.2353 38.7306 8.05745 38.6863 7.9033 38.5945C7.70301 38.475 7.52908 38.3161 7.39207 38.1273C7.24836 37.9415 7.13583 37.7335 7.05887 37.5116Z" fill="#282842"/>
<path d="M11.3675 38.3756L10.5819 37.6226L10.8547 37.3368L12.7526 39.1547L12.4798 39.4405L11.6926 38.6876L9.7685 40.6966L9.44183 40.3846L11.3675 38.3756Z" fill="#282842"/>
<path d="M14.4154 40.3307L14.7976 40.5757L13.0826 43.2495L12.7004 43.0045L14.4154 40.3307Z" fill="#282842"/>
<path d="M18.1737 42.2793L16.867 45.1719L16.5273 45.0184L15.7678 42.0784L14.7878 44.236L14.3746 44.0482L15.6812 41.1555L16.021 41.3091L16.7805 44.2491L17.7605 42.0914L18.1737 42.2793Z" fill="#282842"/>
<path d="M21.3619 45.18L21.1839 46.2629L20.7396 46.1911L20.9193 45.0984L20.0112 42.8509L20.4897 42.9293L21.2166 44.7472L22.4955 43.2609L22.9397 43.3344L21.3619 45.18Z" fill="#282842"/>
<path d="M23.9491 46.3511C23.6978 46.2188 23.4873 46.0206 23.3399 45.7778C23.1918 45.5271 23.1113 45.2421 23.1064 44.9509C23.1016 44.6597 23.1725 44.3723 23.3121 44.1167C23.4541 43.8686 23.6607 43.6637 23.9099 43.5238C24.1737 43.3769 24.4704 43.2994 24.7723 43.2984C25.073 43.2893 25.3711 43.3573 25.638 43.4961C25.891 43.6264 26.103 43.8243 26.2505 44.0677C26.4023 44.3173 26.4825 44.6037 26.4824 44.8958C26.4912 45.1879 26.4206 45.4769 26.2783 45.7321C26.138 45.9799 25.9323 46.1844 25.6837 46.3234C25.4188 46.4656 25.1237 46.5424 24.8231 46.5472C24.5224 46.552 24.225 46.4848 23.9557 46.3511H23.9491ZM25.4387 45.9755C25.6202 45.8681 25.7696 45.7141 25.8716 45.5296C25.9739 45.3367 26.0256 45.1211 26.0219 44.9029C26.0182 44.6846 25.9591 44.4709 25.8503 44.2817C25.7427 44.1007 25.588 43.9523 25.4028 43.8521C25.2097 43.7471 24.992 43.6957 24.7723 43.7035C24.5515 43.7019 24.3341 43.7582 24.1419 43.8668C23.9579 43.9726 23.8065 44.1268 23.7041 44.3127C23.6019 44.5055 23.5501 44.7212 23.5539 44.9394C23.5576 45.1576 23.6166 45.3714 23.7254 45.5606C23.8334 45.7424 23.9894 45.891 24.1762 45.9902C24.3719 46.0912 24.5896 46.1423 24.8099 46.1389C25.0302 46.1355 25.2462 46.0777 25.4387 45.9706V45.9755Z" fill="#282842"/>
<path d="M28.1076 45.9085C27.9549 45.7969 27.8257 45.6562 27.7276 45.4944C27.6295 45.3327 27.5644 45.1531 27.536 44.9661L27.1472 43.2021L27.5899 43.1041L27.9753 44.8501C28.1223 45.5154 28.4871 45.7833 29.0697 45.6537C29.191 45.6351 29.3069 45.5908 29.4097 45.5237C29.5125 45.4567 29.5998 45.3685 29.6658 45.265C29.7861 45.0148 29.8076 44.7284 29.7263 44.463L29.3408 42.717L29.7704 42.6223L30.1607 44.3863C30.2587 44.8327 30.2184 45.1986 30.0399 45.4839C29.8195 45.7711 29.5048 45.9712 29.1513 46.0489C28.7977 46.1266 28.4281 46.0769 28.1076 45.9085Z" fill="#282842"/>
<path d="M33.9141 44.3667L32.8965 43.7444C32.8214 43.7836 32.761 43.813 32.7169 43.8309L31.9966 44.1445L32.382 45.0314L31.9655 45.2111L30.6997 42.2972L31.843 41.8072C32.155 41.6498 32.5129 41.6087 32.8524 41.6913C33.0006 41.7347 33.1367 41.8119 33.2501 41.9167C33.3634 42.0216 33.4509 42.1513 33.5058 42.2956C33.6022 42.499 33.6314 42.7278 33.5891 42.9489C33.5419 43.1631 33.4274 43.3566 33.2624 43.501L34.378 44.1788L33.9141 44.3667ZM33.0795 43.0502C33.1178 42.959 33.1373 42.8609 33.1367 42.7619C33.1362 42.663 33.1156 42.5651 33.0762 42.4743C33.0368 42.3835 32.9795 42.3016 32.9076 42.2336C32.8358 42.1655 32.7509 42.1127 32.6581 42.0784C32.4287 42.0309 32.1899 42.0638 31.9819 42.1715L31.273 42.4785L31.843 43.7852L32.5503 43.4781C32.7712 43.4015 32.9583 43.2502 33.0795 43.0502Z" fill="#282842"/>
<path d="M35.5279 40.1396L36.2057 41.015L37.465 40.035L37.7133 40.3552L36.4523 41.3352L37.238 42.3511L36.8803 42.6288L34.9366 40.1053L36.7088 38.7333L36.9505 39.0452L35.5279 40.1396Z" fill="#282842"/>
<path d="M39.5572 39.9207C39.368 39.9184 39.1812 39.8786 39.0074 39.8038C38.8336 39.7289 38.6763 39.6205 38.5446 39.4846L37.2036 38.276L37.5074 37.9379L38.8353 39.1351C39.3395 39.5902 39.7919 39.5973 40.1926 39.1563C40.2807 39.0703 40.3494 38.9666 40.3942 38.852C40.4389 38.7373 40.4588 38.6145 40.4523 38.4916C40.4045 38.2183 40.2559 37.9729 40.0358 37.8039L38.7079 36.6067L39.0019 36.28L40.3445 37.4903C40.6826 37.7958 40.8639 38.1175 40.8835 38.4524C40.8724 38.8148 40.733 39.1615 40.4901 39.4307C40.2472 39.6999 39.9166 39.8742 39.5572 39.9224V39.9207Z" fill="#282842"/>
<path d="M40.2123 35.1775L39.6308 36.0987L39.3041 35.888L40.7072 33.6666L41.0338 33.8773L40.4524 34.8018L42.8044 36.2865L42.5643 36.6671L40.2123 35.1775Z" fill="#282842"/>
<path d="M43.6945 34.0015C43.5153 34.0626 43.3258 34.0878 43.1369 34.0754C42.948 34.0631 42.7634 34.0136 42.5936 33.9297L40.9244 33.2404L41.0975 32.8206L42.7504 33.5034C43.3798 33.7625 43.8083 33.6172 44.0359 33.0673C44.0902 32.9567 44.1202 32.8358 44.1238 32.7127C44.1275 32.5896 44.1048 32.4671 44.0571 32.3535C43.919 32.1116 43.6952 31.9304 43.4299 31.8455L41.777 31.1644L41.9403 30.7561L43.6096 31.447C44.0326 31.6201 44.3103 31.8635 44.4426 32.1722C44.5528 32.5175 44.5372 32.8907 44.3984 33.2256C44.2597 33.5604 44.0068 33.8353 43.6847 34.0015H43.6945Z" fill="#282842"/>
<path d="M45.7558 28.3649L44.6631 28.8419C44.6533 28.9268 44.6419 28.9921 44.6321 29.0395L44.4769 29.8088L45.4242 30.0015L45.3344 30.4458L42.2213 29.8153L42.4663 28.6018C42.5157 28.2562 42.6865 27.9395 42.9481 27.7083C43.0686 27.6128 43.2096 27.5462 43.36 27.5139C43.5104 27.4817 43.6662 27.4845 43.8154 27.5221C44.0348 27.5605 44.2368 27.6661 44.3936 27.8243C44.5416 27.9851 44.6348 28.1887 44.6598 28.4058L45.8538 27.8798L45.7558 28.3649ZM44.2009 28.2947C44.1519 28.2075 44.0836 28.1327 44.0012 28.0761C43.9188 28.0194 43.8245 27.9825 43.7256 27.968C43.629 27.9423 43.5277 27.9395 43.4298 27.9599C43.332 27.9804 43.2403 28.0234 43.162 28.0856C42.9914 28.247 42.8813 28.4621 42.8501 28.6949L42.6982 29.4511L44.098 29.7337L44.2515 28.9791C44.3144 28.752 44.2965 28.5101 44.2009 28.2947Z" fill="#282842"/>
<path d="M45.6251 24.2603L46.0204 24.2701L45.9632 26.5747L42.788 26.498L42.8419 24.257L43.2372 24.2668L43.1931 26.0537L44.1731 26.0766L44.2107 24.4841L44.5961 24.4939L44.5586 26.0864L45.5827 26.1109L45.6251 24.2603Z" fill="#282842"/>
<path d="M43.4283 20.5167C43.7449 20.5167 44.0016 20.26 44.0016 19.9434C44.0016 19.6268 43.7449 19.3701 43.4283 19.3701C43.1117 19.3701 42.855 19.6268 42.855 19.9434C42.855 20.26 43.1117 20.5167 43.4283 20.5167Z" fill="white"/>
<path d="M5.5382 20.5167C5.85483 20.5167 6.1115 20.26 6.1115 19.9434C6.1115 19.6268 5.85483 19.3701 5.5382 19.3701C5.22158 19.3701 4.9649 19.6268 4.9649 19.9434C4.9649 20.26 5.22158 20.5167 5.5382 20.5167Z" fill="white"/>
</svg>
